C:\GBW_MyPrograms\PredSimResults\gait1018\gait1018_v27.mot
version=1
nRows=11
nColumns=29
inDegrees=yes
endheader
                time	         pelvis_tilt	           pelvis_tx	           pelvis_ty	       hip_flexion_l	       hip_flexion_r	        knee_angle_l	        knee_angle_r	       ankle_angle_l	       ankle_angle_r	    lumbar_extension	hamstrings_r/activation	bifemsh_r/activation	glut_max_r/activation	iliopsoas_r/activation	rect_fem_r/activation	  vasti_r/activation	gastroc_r/activation	 soleus_r/activation	tib_ant_r/activation	hamstrings_l/activation	bifemsh_l/activation	glut_max_l/activation	iliopsoas_l/activation	rect_fem_l/activation	  vasti_l/activation	gastroc_l/activation	 soleus_l/activation	tib_ant_l/activation	
          0.00000000	         -7.52405561	          0.00000000	          0.89257544	         -9.20311176	         31.06706651	        -12.52098020	        -10.33200842	          4.83064158	          8.57399616	          0.92805976	          0.13784641	          0.05000000	          0.05120857	          0.05655329	          0.06853888	          0.05000000	          0.05854010	          0.05379101	          0.21182557	          0.05000000	          0.10808618	          0.05000000	          0.44120515	          0.10038977	          0.05000000	          0.24528229	          0.32505575	          0.05000000	
          0.01024814	         -7.55367391	          0.01616553	          0.89181313	         -9.11522507	         30.23755942	        -14.37500369	         -9.78130122	          3.61129078	          8.32675881	          1.34942630	          0.13420048	          0.05000000	          0.05886435	          0.05000000	          0.05854010	          0.08075147	          0.05000000	          0.05000000	          0.24488541	          0.05000000	          0.09231805	          0.05000000	          0.37684002	          0.08574443	          0.05000000	          0.20949933	          0.27763506	          0.05000000	
          0.02049627	         -7.57921978	          0.03252747	          0.89102464	         -8.82752349	         29.41711304	        -16.57600671	         -9.95987961	          2.20355921	          7.93020848	          1.79271780	          0.11949128	          0.05000000	          0.11607796	          0.05000000	          0.05000000	          0.11401108	          0.05854010	          0.05462351	          0.22451420	          0.05000000	          0.07885025	          0.05000000	          0.32186479	          0.07323562	          0.05000000	          0.17893656	          0.23713232	          0.05000000	
          0.03074441	         -7.60580654	          0.04882723	          0.89044654	         -8.28792216	         28.58490830	        -19.13239291	        -10.32515834	          0.44418377	          7.60571138	          2.23108683	          0.10205932	          0.06407824	          0.14597003	          0.05000000	          0.05000000	          0.15525073	          0.05000000	          0.05000000	          0.28589485	          0.05000000	          0.06734719	          0.08536506	          0.27490961	          0.06255165	          0.05622331	          0.15283244	          0.20253832	          0.05000000	
          0.04099254	         -7.63871126	          0.06472677	          0.89035303	         -7.47579278	         27.83541154	        -21.99971139	        -10.76893581	         -1.67914348	          7.24262129	          2.62783595	          0.09730480	          0.05473020	          0.19912382	          0.05000000	          0.05000000	          0.23233218	          0.05000000	          0.05000000	          0.29707396	          0.05000000	          0.05752226	          0.07291160	          0.23480447	          0.05342632	          0.06323369	          0.13053651	          0.17299105	          0.25773518	
          0.05124068	         -7.67997641	          0.07998432	          0.89072349	         -6.43851219	         27.18960734	        -25.07722479	        -11.31486899	         -3.38793218	          6.98542321	          2.95505935	          0.08310951	          0.05000000	          0.22148411	          0.05000000	          0.05000000	          0.28607466	          0.05000000	          0.05000000	          0.31714336	          0.05000000	          0.05000000	          0.06227490	          0.20055007	          0.10653208	          0.05400886	          0.11149321	          0.14775429	          0.22013554	
          0.06148881	         -7.72980015	          0.09457487	          0.89151981	         -5.26648761	         26.57507087	        -28.09306141	        -11.82876352	         -3.76201184	          6.82529459	          3.21055195	          0.07611759	          0.05000000	          0.20631054	          0.05000000	          0.05000000	          0.30926254	          0.05000000	          0.05000000	          0.31412206	          0.05000000	          0.05000000	          0.05318994	          0.17129286	          0.10292842	          0.05000000	          0.09522805	          0.12619918	          0.25717936	
          0.07173695	         -7.78570755	          0.10860542	          0.89276988	         -3.99616580	         25.92591154	        -30.94062264	        -12.21451719	         -3.60015040	          6.78573070	          3.40591277	          0.07901384	          0.05000000	          0.18960745	          0.05000000	          0.05000000	          0.30670363	          0.05000000	          0.05323563	          0.30863448	          0.05000000	          0.07532199	          0.05000000	          0.14630384	          0.14446499	          0.05000000	          0.08133572	          0.10778864	          0.26468650	
          0.08198509	         -7.84553653	          0.12218493	          0.89441208	         -2.66212960	         25.21211742	        -33.54993969	        -12.43055322	         -3.22818428	          6.82180779	          3.55292706	          0.08167195	          0.05000000	          0.17317722	          0.05000000	          0.05000000	          0.29039109	          0.05000000	          0.05860802	          0.29826031	          0.05160390	          0.10022599	          0.05000000	          0.12517346	          0.18386116	          0.05000000	          0.06947008	          0.09206391	          0.25009822	
          0.09223322	         -7.90702469	          0.13540685	          0.89634810	         -1.29657895	         24.42815441	        -35.86889459	        -12.47852733	         -2.70303701	          6.89729938	          3.66089270	          0.08324489	          0.05000000	          0.15686743	          0.05000000	          0.05000000	          0.26670571	          0.05000000	          0.06457495	          0.28840464	          0.06149097	          0.12805279	          0.05000000	          0.11397921	          0.21661682	          0.05000000	          0.06175649	          0.07863319	          0.23324963	
          0.10248136	         -7.96794042	          0.14833830	          0.89847035	          0.08444565	         23.58368960	        -37.88781060	        -12.38448121	         -2.07539825	          6.98007182	          3.73554546	          0.08399629	          0.05000000	          0.14250595	          0.05000000	          0.05000000	          0.24124016	          0.05000000	          0.07104196	          0.28055361	          0.06835299	          0.15553067	          0.05000000	          0.10863203	          0.23976834	          0.05000000	          0.05379435	          0.06716180	          0.21354611	
